<?xml version="1.0" encoding="utf-8"?>
<!-- Generator: Adobe Illustrator 24.3.0, SVG Export Plug-In . SVG Version: 6.00 Build 0)  -->
<svg version="1.1" id="Layer_1" xmlns="http://www.w3.org/2000/svg" xmlns:xlink="http://www.w3.org/1999/xlink" x="0px" y="0px"
	 viewBox="0 0 200 200" style="enable-background:new 0 0 200 200;" xml:space="preserve">
<style type="text/css">
	.st0{fill:#66DDFF;}
</style>
<g>
	<path class="st0" d="M88.6,57.8c0,1.6,1.3,3,3,3c1.6,0,3-1.3,3-3c0-1.6-1.3-3-3-3C89.9,54.8,88.6,56.1,88.6,57.8z"/>
	<path class="st0" d="M97,57.8c0,1.6,1.3,3,3,3c1.6,0,3-1.3,3-3c0-1.6-1.3-3-3-3C98.3,54.8,97,56.1,97,57.8z"/>
	<path class="st0" d="M105.4,57.8c0,1.6,1.3,3,3,3c1.6,0,3-1.3,3-3c0-1.6-1.3-3-3-3C106.8,54.8,105.4,56.1,105.4,57.8z"/>
	<path class="st0" d="M113.9,57.8c0,1.6,1.3,3,3,3c1.6,0,3-1.3,3-3c0-1.6-1.3-3-3-3C115.2,54.8,113.9,56.1,113.9,57.8z"/>
	<circle class="st0" cx="100" cy="66.2" r="3"/>
	<circle class="st0" cx="108.4" cy="66.2" r="3"/>
	<circle class="st0" cx="116.9" cy="66.2" r="3"/>
	<circle class="st0" cx="125.3" cy="66.2" r="3"/>
	<path class="st0" d="M105.4,74.7c0,1.6,1.3,3,3,3c1.6,0,3-1.3,3-3c0-1.6-1.3-3-3-3C106.8,71.7,105.4,73,105.4,74.7z"/>
	<path class="st0" d="M113.9,74.7c0,1.6,1.3,3,3,3c1.6,0,3-1.3,3-3c0-1.6-1.3-3-3-3C115.2,71.7,113.9,73,113.9,74.7z"/>
	<path class="st0" d="M122.3,74.7c0,1.6,1.3,3,3,3c1.6,0,3-1.3,3-3c0-1.6-1.3-3-3-3C123.6,71.7,122.3,73,122.3,74.7z"/>
	<path class="st0" d="M130.7,74.7c0,1.6,1.3,3,3,3c1.6,0,3-1.3,3-3c0-1.6-1.3-3-3-3C132.1,71.7,130.7,73,130.7,74.7z"/>
	<circle class="st0" cx="116.9" cy="83.1" r="3"/>
	<circle class="st0" cx="125.3" cy="83.1" r="3"/>
	<path class="st0" d="M130.7,83.1c0,1.6,1.3,3,3,3c1.6,0,3-1.3,3-3s-1.3-3-3-3C132.1,80.1,130.7,81.5,130.7,83.1z"/>
	<circle class="st0" cx="142.2" cy="83.1" r="3"/>
	<path class="st0" d="M122.3,91.6c0,1.6,1.3,3,3,3c1.6,0,3-1.3,3-3c0-1.6-1.3-3-3-3C123.6,88.6,122.3,89.9,122.3,91.6z"/>
	<path class="st0" d="M130.7,91.6c0,1.6,1.3,3,3,3c1.6,0,3-1.3,3-3c0-1.6-1.3-3-3-3C132.1,88.6,130.7,89.9,130.7,91.6z"/>
	<path class="st0" d="M139.2,91.6c0,1.6,1.3,3,3,3c1.6,0,3-1.3,3-3c0-1.6-1.3-3-3-3C140.5,88.6,139.2,89.9,139.2,91.6z"/>
	<path class="st0" d="M147.6,91.6c0,1.6,1.3,3,3,3c1.6,0,3-1.3,3-3c0-1.6-1.3-3-3-3C148.9,88.6,147.6,89.9,147.6,91.6z"/>
	<path class="st0" d="M130.7,100c0,1.6,1.3,3,3,3c1.6,0,3-1.3,3-3c0-1.6-1.3-3-3-3C132.1,97,130.7,98.4,130.7,100z"/>
	<path class="st0" d="M122.3,100c0,1.6,1.3,3,3,3c1.6,0,3-1.3,3-3c0-1.6-1.3-3-3-3C123.6,97,122.3,98.4,122.3,100z"/>
	<circle class="st0" cx="116.8" cy="100" r="3"/>
	<circle class="st0" cx="142.2" cy="100" r="3"/>
	<path class="st0" d="M147.6,100c0,1.6,1.3,3,3,3c1.6,0,3-1.3,3-3c0-1.6-1.3-3-3-3C148.9,97,147.6,98.4,147.6,100z"/>
	<circle class="st0" cx="159" cy="100" r="3"/>
	<circle class="st0" cx="125.3" cy="108.4" r="3"/>
	<path class="st0" d="M113.9,91.6c0,1.6,1.3,3,3,3c1.6,0,3-1.3,3-3c0-1.6-1.3-3-3-3C115.2,88.6,113.9,89.9,113.9,91.6z"/>
	<circle class="st0" cx="116.9" cy="108.4" r="3"/>
	<circle class="st0" cx="108.3" cy="100" r="3"/>
	<path class="st0" d="M105.5,91.6c0,1.6,1.3,3,3,3c1.6,0,3-1.3,3-3c0-1.6-1.3-3-3-3C106.8,88.6,105.5,89.9,105.5,91.6z"/>
	<path class="st0" d="M105.5,108.4c0,1.6,1.3,3,3,3c1.6,0,3-1.3,3-3c0-1.6-1.3-3-3-3C106.8,105.5,105.5,106.8,105.5,108.4z"/>
	<circle class="st0" cx="99.9" cy="100" r="3"/>
	<path class="st0" d="M97,91.6c0,1.6,1.3,3,3,3c1.6,0,3-1.3,3-3c0-1.6-1.3-3-3-3C98.4,88.6,97,89.9,97,91.6z"/>
	<circle class="st0" cx="100" cy="108.4" r="3"/>
	<circle class="st0" cx="91.5" cy="100" r="3"/>
	<path class="st0" d="M88.6,91.6c0,1.6,1.3,3,3,3c1.6,0,3-1.3,3-3c0-1.6-1.3-3-3-3C90,88.6,88.6,89.9,88.6,91.6z"/>
	<circle class="st0" cx="91.6" cy="108.4" r="3"/>
	<circle class="st0" cx="83.1" cy="100" r="3"/>
	<path class="st0" d="M80.2,91.6c0,1.6,1.3,3,3,3c1.6,0,3-1.3,3-3c0-1.6-1.3-3-3-3C81.5,88.6,80.2,89.9,80.2,91.6z"/>
	<path class="st0" d="M80.2,108.4c0,1.6,1.3,3,3,3c1.6,0,3-1.3,3-3c0-1.6-1.3-3-3-3C81.5,105.5,80.2,106.8,80.2,108.4z"/>
	<circle class="st0" cx="74.7" cy="100" r="3"/>
	<path class="st0" d="M71.8,91.6c0,1.6,1.3,3,3,3c1.6,0,3-1.3,3-3c0-1.6-1.3-3-3-3C73.1,88.6,71.8,89.9,71.8,91.6z"/>
	<circle class="st0" cx="74.8" cy="108.4" r="3"/>
	<path class="st0" d="M63.3,100c0,1.6,1.3,3,3,3c1.6,0,3-1.3,3-3c0-1.6-1.3-3-3-3C64.6,97,63.3,98.4,63.3,100z"/>
	<path class="st0" d="M63.4,91.6c0,1.6,1.3,3,3,3s3-1.3,3-3c0-1.6-1.3-3-3-3S63.4,89.9,63.4,91.6z"/>
	<circle class="st0" cx="66.3" cy="108.4" r="3"/>
	<circle class="st0" cx="57.8" cy="100" r="3"/>
	<path class="st0" d="M54.9,91.6c0,1.6,1.3,3,3,3c1.6,0,3-1.3,3-3c0-1.6-1.3-3-3-3C56.3,88.6,54.9,89.9,54.9,91.6z"/>
	<circle class="st0" cx="57.9" cy="108.4" r="3"/>
	<circle class="st0" cx="49.4" cy="100" r="3"/>
	<path class="st0" d="M46.5,91.6c0,1.6,1.3,3,3,3c1.6,0,3-1.3,3-3c0-1.6-1.3-3-3-3C47.9,88.6,46.5,89.9,46.5,91.6z"/>
	<path class="st0" d="M46.5,108.4c0,1.6,1.3,3,3,3c1.6,0,3-1.3,3-3c0-1.6-1.3-3-3-3C47.9,105.5,46.5,106.8,46.5,108.4z"/>
	<path class="st0" d="M38,100c0,1.6,1.3,3,3,3c1.6,0,3-1.3,3-3c0-1.6-1.3-3-3-3C39.3,97,38,98.4,38,100z"/>
	<path class="st0" d="M38.1,91.6c0,1.6,1.3,3,3,3s3-1.3,3-3c0-1.6-1.3-3-3-3S38.1,89.9,38.1,91.6z"/>
	<circle class="st0" cx="41.1" cy="108.4" r="3"/>
	<path class="st0" d="M130.7,108.4c0,1.6,1.3,3,3,3c1.6,0,3-1.3,3-3c0-1.6-1.3-3-3-3C132.1,105.5,130.7,106.8,130.7,108.4z"/>
	<circle class="st0" cx="142.2" cy="108.4" r="3"/>
	<path class="st0" d="M147.6,108.4c0,1.6,1.3,3,3,3c1.6,0,3-1.3,3-3c0-1.6-1.3-3-3-3C148.9,105.5,147.6,106.8,147.6,108.4z"/>
	<circle class="st0" cx="116.9" cy="116.9" r="3"/>
	<circle class="st0" cx="125.3" cy="116.9" r="3"/>
	<path class="st0" d="M130.7,116.9c0,1.6,1.3,3,3,3c1.6,0,3-1.3,3-3c0-1.6-1.3-3-3-3C132.1,113.9,130.7,115.2,130.7,116.9z"/>
	<circle class="st0" cx="142.2" cy="116.9" r="3"/>
	<circle class="st0" cx="108.4" cy="125.3" r="3"/>
	<circle class="st0" cx="116.9" cy="125.3" r="3"/>
	<circle class="st0" cx="125.3" cy="125.3" r="3"/>
	<path class="st0" d="M130.7,125.3c0,1.6,1.3,3,3,3c1.6,0,3-1.3,3-3c0-1.6-1.3-3-3-3C132.1,122.3,130.7,123.7,130.7,125.3z"/>
	<circle class="st0" cx="100" cy="133.8" r="3"/>
	<circle class="st0" cx="108.4" cy="133.8" r="3"/>
	<circle class="st0" cx="116.9" cy="133.8" r="3"/>
	<circle class="st0" cx="125.3" cy="133.8" r="3"/>
	<path class="st0" d="M88.6,142.2c0,1.6,1.3,3,3,3c1.6,0,3-1.3,3-3c0-1.6-1.3-3-3-3C89.9,139.2,88.6,140.6,88.6,142.2z"/>
	<circle class="st0" cx="100" cy="142.2" r="3"/>
	<circle class="st0" cx="108.4" cy="142.2" r="3"/>
	<circle class="st0" cx="116.9" cy="142.2" r="3"/>
</g>
</svg>
